<svg preserveAspectRatio="none" width="100%" height="100%" overflow="visible" style="display: block;" viewBox="0 0 120 120" fill="none" xmlns="http://www.w3.org/2000/svg">
<g id="Icon">
<g id="Vector">
<path fill-rule="evenodd" clip-rule="evenodd" d="M87.5632 44.8659C86.2131 45.1636 84.3097 45.5676 82.9256 45.6874C83.0932 45.4492 86.4645 44.6298 86.9778 44.4968L87.0383 44.5874C86.8252 44.6351 86.7338 44.6229 86.5879 44.7918L86.5883 44.9068C86.8237 44.9777 87.2705 44.8486 87.5632 44.8659Z" fill="var(--fill-0, #110C09)"/>
<path fill-rule="evenodd" clip-rule="evenodd" d="M86.9778 44.4968C88.0786 44.2634 89.189 43.9877 90.2905 43.7763L89.9663 43.9382C90.4908 43.9774 89.8745 44.2239 89.8982 44.478C89.1437 44.6665 88.3327 44.7473 87.5632 44.8659C87.2705 44.8486 86.8237 44.9777 86.5883 44.9068L86.5879 44.7918C86.7338 44.6229 86.8252 44.6351 87.0383 44.5874L86.9778 44.4968Z" fill="var(--fill-0, #110C09)"/>
<path fill-rule="evenodd" clip-rule="evenodd" d="M104.443 59.3838C102.814 59.6522 93.8714 59.3103 92.3367 58.9131C93.7083 58.7942 95.4218 58.9318 96.8445 58.9105C99.6642 58.8679 102.438 58.7105 105.246 58.4737C104.118 58.9561 101.624 58.4784 100.838 59.1929L100.84 59.2441C101.566 59.3908 104.065 59.1348 104.443 59.3838Z" fill="var(--fill-0, #110C09)"/>
<path fill-rule="evenodd" clip-rule="evenodd" d="M71.6653 51.1943C72.2014 51.309 74.8822 53.0593 75.6839 53.4562C79.789 55.4874 84.2504 57.3535 88.8253 57.9252C89.5381 58.0144 90.9714 57.9676 91.5177 58.5154C90.6026 58.3162 89.6907 58.4614 88.7637 58.4722C82.7793 58.5433 76.2223 54.8029 71.6653 51.1943Z" fill="var(--fill-0, #110C09)"/>
<path fill-rule="evenodd" clip-rule="evenodd" d="M67.3774 40.4049C69.8804 37.9996 70.8702 35.8967 72.5719 32.9074C77.8575 23.6223 83.023 16.3174 93.3385 11.8223C98.3317 9.64645 104.289 8.71253 108.436 13.1156C111.012 15.851 112.289 19.7089 114.23 22.9069C115.713 25.3517 117.871 27.2211 119.111 29.8538C121.753 35.4621 117.947 41.0388 114.962 45.6308C112.881 48.8324 112.721 49.0148 112.12 52.7796C110.276 64.3293 106.67 64.7128 96.3434 64.3873C97.411 65.3275 98.925 66.1827 100.125 67.1984C105.134 71.4375 109.509 76.883 111.525 83.2119C108.204 81.6078 107.413 81.4757 104.088 80.3944C103.595 85.6069 101.862 91.2259 99.1641 95.715C98.7928 96.3333 98.1812 97.8417 97.3345 97.8611L97.2338 97.7774C97.3883 97.1121 97.9176 96.5962 98.1204 95.9477C95.9468 90.2589 90.72 86.4466 86.5062 82.351C82.8857 78.8322 79.9227 74.7559 77.4494 70.3544C75.3309 66.5839 69.7819 53.5933 63.9551 56.0902C61.2041 57.2691 59.9617 58.9418 56.2284 59.8373C54.0142 64.048 55.5889 72.0416 56.226 76.8462C56.8438 81.5032 57.1558 86.1134 56.373 90.7757C55.7502 94.485 52.1352 106.042 56.6014 108.482C58.1319 109.318 58.6437 110.199 56.5704 109.96C49.1587 109.107 44.1975 103.564 39.5629 98.43C38.1592 99.8065 36.7922 102.744 36.2691 104.641C36.1139 105.204 36.0216 108.702 35.2677 107.609C34.8106 106.946 34.6159 105.881 34.3902 105.101C32.3848 98.1695 32.6947 89.4142 35.3424 82.6115C32.1481 84.3335 28.5003 86.95 24.6812 85.7731C20.621 84.5222 18.4512 80.1183 15.3136 77.6684C13.9283 76.5866 12.2321 75.8093 10.6694 75.0228C5.64532 72.4941 0.397687 68.8394 0.0173255 62.6957C-0.150079 59.99 0.948362 57.481 1.04628 54.7995C1.18926 50.8793 -0.373836 48.0628 0.975713 43.7875C1.82177 41.1064 3.85527 38.9132 6.32509 37.6356C18.2527 31.4661 32.094 37.185 43.0987 42.8173C45.3654 43.9771 47.6063 45.2863 49.9318 46.3109C50.2013 45.613 50.2164 44.3776 50.9864 44.0291C53.5277 42.8786 56.0616 41.864 58.8232 41.3702C60.0585 41.149 61.7653 41.0987 62.8824 40.7926C64.0408 40.4749 64.852 39.0297 66.2288 39.6371C67.0801 40.0129 67.6083 40.9952 68.2315 41.6494C71.0137 40.1831 73.8057 38.7557 76.5576 37.2327C80.4315 35.0889 79.4449 35.1213 81.7627 31.0902C85.1074 25.2736 94.5396 13.5519 101.686 15.8537C102.853 16.2295 103.611 17.0013 104.477 17.8317C105.079 16.1253 105.317 15.5287 105.151 13.6918C108.099 18.7246 96.4766 25.8744 93.2235 28.106C86.7213 32.566 76.0029 39.816 68.3044 41.9226C68.6845 42.6888 69.0633 43.4361 69.544 44.1449C72.0649 42.5508 76.0395 41.1995 78.8194 39.8966C80.6702 39.0291 82.3893 37.8406 84.2728 37.0698L84.2206 37.1078C80.4156 39.8465 76.1712 42.063 71.9643 44.0935C71.5046 44.3155 69.8841 44.9028 69.7857 45.3869L69.9062 45.419L69.9392 45.4588C71.6386 46.1405 73.4364 46.4162 75.2761 47.207C73.5554 47.0822 71.7989 46.7012 70.1214 46.3093C70.4795 48.5809 70.5825 50.7116 70.1737 52.9828L70.2777 53.0323C71.2368 53.4926 72.1477 54.1029 73.0635 54.6467C81.8807 59.8844 87.435 62.3978 98.1611 63.0822C105.037 63.5206 107.752 63.1828 110.285 56.2788C108.732 58.33 107.07 59.5198 104.443 59.3838C104.065 59.1348 101.566 59.3908 100.84 59.2441L100.838 59.1929C101.624 58.4784 104.118 58.9561 105.246 58.4737C109.721 57.2842 110.629 54.1687 111.441 49.752C111.648 48.6275 112.018 47.5173 111.073 46.6313C107.653 43.4244 97.9966 43.7662 93.7927 44.1121C92.5419 44.2149 91.2489 44.4366 90.0011 44.4753L89.8982 44.478C89.8745 44.2239 90.4908 43.9774 89.9663 43.9382L90.2905 43.7763C92.1858 43.5724 94.0464 43.1351 95.9493 42.952C100.229 42.5403 112.002 42.6316 112.704 48.6689C115.147 43.1522 120.436 37.2439 117.994 30.8726C116.781 27.7088 114.406 25.3604 112.7 22.487C110.423 18.6496 109.182 13.7752 104.774 11.8336C100.138 9.79176 94.6898 12.2445 90.575 14.5446C83.3062 18.6078 77.8385 24.7163 73.7694 31.9153C72.361 34.407 69.9951 39.1538 67.3774 40.4049ZM14.5836 76.318C12.932 68.0285 27.4235 62.0533 33.4852 60.6523C35.352 60.221 37.2718 60.0248 39.1583 59.703C37.9586 60.1536 36.6799 60.3768 35.4427 60.7025C31.6381 61.7048 27.9105 62.9971 24.5144 65.0204C22.3954 66.283 13.9112 72.0632 15.3387 75.1845C16.1904 77.0462 21.3304 81.851 23.8286 81.557C29.0184 80.9467 33.9497 76.1828 38.3144 74.1298C34.727 76.991 27.407 82.5175 23.1769 82.4433C21.5974 82.4156 20.9101 81.5161 20.3318 81.4561C26.4573 86.8673 29.096 85.0449 35.8473 80.6257C45.901 74.0452 48.209 68.4938 53.0419 58.618C51.7148 56.781 50.9787 54.8299 50.4131 52.6512C49.5929 53.7425 47.5806 55.8374 46.4596 56.5427C47.5625 55.0274 49.024 53.6348 50.312 52.2722C50.2688 51.9709 50.2501 51.675 50.0988 51.4063C49.8513 51.2374 46.0221 51.7883 45.4458 51.8732C42.0902 52.3667 38.6758 52.4681 35.3014 52.7997L35.2694 52.7585L35.3273 52.6939C35.8312 52.7402 43.9306 51.2094 44.7677 51.054C46.5027 50.7321 48.2416 50.299 49.9847 50.0466C49.9813 49.4143 49.9254 48.7832 49.8802 48.153C48.4768 48.3544 47.1225 48.6851 45.7011 48.7926C37.1316 49.4397 10.6045 49.4136 4.97964 46.2632C3.88219 45.6485 3.36752 44.5973 3.03645 43.4278C3.98604 44.9189 4.91237 45.8345 6.60381 46.4093C6.53128 45.6542 6.48987 44.9999 6.78115 44.2805C7.36072 43.6873 6.63199 44.939 6.7502 45.1934C7.13564 44.7071 7.39385 43.7707 8.09367 43.6524L8.13745 43.7566C10.9256 41.7316 16.759 41.6759 20.0714 42.7852C20.2861 42.5474 20.4111 42.7217 20.2465 42.3385C23.1468 42.917 26.6511 44.7762 29.2083 46.2497C32.1095 47.9214 31.1271 47.9289 34.6319 47.9367C39.7734 47.9487 44.9034 47.7091 50.0309 47.3327C47.8288 46.8609 44.2177 44.7266 42.1005 43.618C33.8196 39.2828 24.5756 34.9247 15.0078 35.7411C10.6887 36.1096 6.10752 37.5998 3.2571 41.0342C-0.642475 45.7318 1.93826 50.6878 1.78166 55.6719C1.70437 58.1228 0.820191 60.4654 1.05926 62.9411C1.56805 68.2058 6.29583 71.4592 10.4721 73.8446C11.8571 74.6357 13.3635 75.2659 14.5836 76.318ZM54.1875 59.6842C53.5459 60.4331 52.7674 62.7174 52.2981 63.7301C51.3947 65.6788 50.1676 67.4051 49.3184 69.2259C49.6652 70.795 50.1669 72.3049 50.4493 73.8927C51.2667 78.4905 50.9381 84.3236 49.9133 88.7963C49.7345 89.5778 49.2527 92.4453 48.6056 92.8465C50.7075 86.8795 50.1546 75.8856 48.5765 70.0709C46.5772 73.4139 42.573 77.3949 39.5788 79.699C37.3072 81.4467 36.3054 81.0512 35.3391 83.9302C34.4695 86.5212 33.4372 91.9396 33.622 94.8086C33.6418 98.5235 34.2235 102.19 35.2527 105.755C36.0215 102.974 37.1088 99.3081 39.6671 97.73C45.259 103.648 47.5953 105.66 54.9307 108.564C52.3246 104.583 53.3138 99.6164 54.209 95.2255C55.0326 91.1853 55.8013 88.0337 55.7049 83.7812C55.5396 76.4851 52.427 68.2771 54.765 61.1674C54.828 60.9763 55.1832 60.017 55.1405 59.9182L55.0784 59.9276L55.0141 59.8589C54.7398 59.7954 54.4665 59.727 54.1875 59.6842ZM69.3136 54.2393C68.6392 54.7244 67.945 55.2137 67.1726 55.5275C71.87 57.7552 74.524 62.843 77.0305 67.1599C80.0758 72.4035 82.9188 77.0912 87.2268 81.3798C90.8918 85.0283 97.2168 90.2383 98.3673 95.4622C100.718 91.2098 102.257 86.4207 102.986 81.6137C103.034 81.3007 103.162 79.7955 103.459 79.7053C104.988 79.2414 109.339 81.6267 110.977 82.3127C110.763 79.8951 103.29 71.5263 101.459 69.8125C100.038 68.507 96.0254 65.0653 94.4282 64.3139C93.3721 63.8172 91.2229 63.7061 89.9803 63.444C85.9061 62.5839 81.8607 60.9853 78.1534 59.1072C76.862 58.4532 75.6892 57.6822 74.3352 57.1411C78.6425 61.7434 82.8623 67.9277 86.838 72.9317C88.8036 75.4057 89.6661 76.5271 92.1742 78.3566L92.165 78.4399C89.329 77.6147 80.7822 66.6186 79.0343 64.2122C77.4759 62.0666 75.4219 58.7764 73.6453 56.8937C73.2099 56.4323 69.8373 54.291 69.3136 54.2393ZM65.4537 48.9094C65.2637 48.0091 65.191 46.6363 65.0924 45.6918C64.7254 44.1765 64.0622 42.7619 63.4347 41.342L63.3516 41.3865C61.8032 42.212 58.616 42.3747 56.7589 42.7645C56.1117 42.9004 51.2875 44.126 51.1258 44.6604C50.2228 47.6424 51.6448 57.7193 54.9236 58.5154C56.5859 58.9193 61.3921 56.0995 62.8676 55.1061C65.4593 53.3615 65.3505 51.7482 65.4537 48.9094ZM96.7878 17.1483C88.4044 19.8969 84.8477 27.8083 80.7513 34.7235C82.3557 33.7271 83.9293 32.6686 85.553 31.7049C90.8622 28.5032 99.1147 23.8093 103.092 19.4346C103.45 19.0401 104.368 18.3367 103.837 17.7686C102.409 16.241 98.619 16.3418 96.7878 17.1483ZM8.13745 43.7566C7.32176 44.4835 6.86339 45.4092 6.7973 46.5091C9.87083 47.982 25.0352 48.1103 30.1788 47.8778L30.1018 47.8359C26.6025 45.9114 24.4854 43.4027 20.0714 42.7852C16.759 41.6759 10.9256 41.7316 8.13745 43.7566ZM63.6805 41.2759L63.4347 41.342C64.0622 42.7619 64.7254 44.1765 65.0924 45.6918C65.191 46.6363 65.2637 48.0091 65.4537 48.9094L65.5305 48.8251C65.6877 47.1766 65.5146 46.7919 65.8385 48.7783L65.9176 48.7846C66.5004 50.9481 66.0929 53.0009 64.9835 54.9067C69.1803 53.822 70.0185 51.7265 69.4087 47.4612C69.0136 44.6962 67.8629 42.0553 65.6111 40.362C64.8389 40.5552 64.313 40.7897 63.6805 41.2759Z" fill="var(--fill-0, #110C09)"/>
<path fill-rule="evenodd" clip-rule="evenodd" d="M65.0924 45.6918C65.0596 45.3758 65.1296 45.0766 65.1852 44.7671C65.4304 45.6594 66.1676 47.9239 65.9176 48.7846L65.8385 48.7783C65.5146 46.7919 65.6877 47.1766 65.5305 48.8251L65.4537 48.9094C65.2637 48.0091 65.191 46.6363 65.0924 45.6918Z" fill="var(--fill-0, #110C09)"/>
<path fill-rule="evenodd" clip-rule="evenodd" d="M63.4347 41.342L63.6805 41.2759C64.4427 42.3364 64.8574 43.5149 65.1852 44.7671C65.1296 45.0766 65.0596 45.3758 65.0924 45.6918C64.7254 44.1765 64.0622 42.7619 63.4347 41.342Z" fill="var(--fill-0, #110C09)"/>
<path fill-rule="evenodd" clip-rule="evenodd" d="M6.78115 44.2805C8.40697 40.7155 15.1153 41.3089 18.1403 41.8305C18.7438 41.9346 19.7353 41.9998 20.2465 42.3385C20.4111 42.7217 20.2861 42.5474 20.0714 42.7852C16.759 41.6759 10.9256 41.7316 8.13745 43.7566L8.09367 43.6524C7.39385 43.7707 7.13564 44.7071 6.7502 45.1934C6.63199 44.939 7.36072 43.6873 6.78115 44.2805Z" fill="var(--fill-0, #110C09)"/>
<path fill-rule="evenodd" clip-rule="evenodd" d="M51.8194 57.922L51.8436 57.9401C51.8174 58.7651 50.238 61.1101 49.7574 61.9075C47.3044 65.9778 43.1314 72.0222 38.6807 74.0313L38.5848 73.9353C38.7313 73.5652 42.8328 69.7084 43.4226 69.1044C47.3913 65.0403 48.8458 62.491 51.8194 57.922Z" fill="var(--fill-0, #110C09)"/>
</g>
</g>
</svg>
