<svg preserveAspectRatio="none" width="100%" height="100%" overflow="visible" style="display: block;" viewBox="0 0 80 80" fill="none" xmlns="http://www.w3.org/2000/svg">
<g id="Icon">
<g id="Vector">
<path fill-rule="evenodd" clip-rule="evenodd" d="M58.3755 29.9106C57.4754 30.1091 56.2065 30.3784 55.2837 30.4583C55.3954 30.2994 57.643 29.7532 57.9852 29.6645L58.0256 29.7249C57.8835 29.7568 57.8226 29.7486 57.7253 29.8612L57.7255 29.9379C57.8825 29.9851 58.1803 29.899 58.3755 29.9106Z" fill="var(--fill-0, #110C09)"/>
<path fill-rule="evenodd" clip-rule="evenodd" d="M57.9852 29.6645C58.719 29.509 59.4593 29.3252 60.1937 29.1842L59.9775 29.2921C60.3272 29.3182 59.9163 29.4826 59.9321 29.652C59.4291 29.7776 58.8885 29.8316 58.3755 29.9106C58.1803 29.899 57.8825 29.9851 57.7255 29.9379L57.7253 29.8612C57.8226 29.7486 57.8835 29.7568 58.0256 29.7249L57.9852 29.6645Z" fill="var(--fill-0, #110C09)"/>
<path fill-rule="evenodd" clip-rule="evenodd" d="M69.6289 39.5892C68.5423 39.7681 62.5809 39.5402 61.5578 39.2754C62.4722 39.1961 63.6145 39.2879 64.563 39.2737C66.4428 39.2453 68.2922 39.1403 70.164 38.9825C69.4123 39.3041 67.7494 38.9856 67.2254 39.4619L67.2266 39.496C67.7104 39.5939 69.3765 39.4232 69.6289 39.5892Z" fill="var(--fill-0, #110C09)"/>
<path fill-rule="evenodd" clip-rule="evenodd" d="M47.7768 34.1295C48.1342 34.206 49.9215 35.3729 50.4559 35.6374C53.1926 36.9916 56.1669 38.2357 59.2169 38.6168C59.6921 38.6763 60.6476 38.6451 61.0118 39.0103C60.4017 38.8775 59.7938 38.9743 59.1758 38.9814C55.1862 39.0289 50.8149 36.5353 47.7768 34.1295Z" fill="var(--fill-0, #110C09)"/>
<path fill-rule="evenodd" clip-rule="evenodd" d="M44.9183 26.9366C46.5869 25.333 47.2468 23.9311 48.3813 21.9383C51.905 15.7482 55.3487 10.8783 62.2257 7.8815C65.5545 6.43097 69.5262 5.80835 72.2906 8.74375C74.008 10.5673 74.8595 13.1392 76.1532 15.2712C77.1423 16.9011 78.581 18.1474 79.4077 19.9025C81.1688 23.6414 78.6314 27.3592 76.6413 30.4205C75.254 32.555 75.1472 32.6765 74.7465 35.1864C73.5171 42.8862 71.1134 43.1419 64.2289 42.9249C64.9407 43.5516 65.95 44.1218 66.7498 44.7989C70.0893 47.625 73.006 51.2553 74.3499 55.4746C72.1362 54.4052 71.6086 54.3171 69.3918 53.5963C69.0636 57.0712 67.908 60.8173 66.1094 63.81C65.8618 64.2222 65.4541 65.2278 64.8897 65.2407L64.8225 65.1849C64.9255 64.7414 65.2784 64.3974 65.4136 63.9651C63.9645 60.1726 60.48 57.6311 57.6708 54.9007C55.2571 52.5548 53.2818 49.8373 51.6329 46.9029C50.2206 44.3893 46.5213 35.7289 42.6367 37.3935C40.8028 38.1794 39.9744 39.2945 37.4856 39.8915C36.0095 42.6987 37.0593 48.0277 37.484 51.2308C37.8958 54.3355 38.1039 57.4089 37.582 60.5171C37.1668 62.99 34.7568 70.6948 37.7343 72.3214C38.7546 72.8788 39.0958 73.4659 37.7136 73.3069C32.7725 72.7381 29.465 69.0428 26.3752 65.62C25.4395 66.5377 24.5281 68.496 24.1794 69.7606C24.0759 70.1357 24.0144 72.4678 23.5118 71.739C23.2071 71.2973 23.0773 70.5874 22.9268 70.0672C21.5899 65.4463 21.7965 59.6095 23.5616 55.0743C21.4321 56.2223 19.0002 57.9666 16.4541 57.1821C13.7473 56.3481 12.3008 53.4122 10.2091 51.779C9.28552 51.0577 8.15475 50.5395 7.11295 50.0152C3.76355 48.3294 0.265124 45.893 0.0115503 41.7971C-0.100053 39.9934 0.632241 38.3206 0.697517 36.533C0.792838 33.9195 -0.249224 32.0419 0.650475 29.1916C1.21452 27.4042 2.57018 25.9421 4.21673 25.0904C12.1685 20.9774 21.396 24.79 28.7325 28.5449C30.2436 29.3181 31.7376 30.1909 33.2879 30.874C33.4675 30.4087 33.4776 29.5851 33.991 29.3527C35.6852 28.5857 37.3744 27.9093 39.2154 27.5801C40.039 27.4327 41.1769 27.3991 41.9216 27.1951C42.6939 26.9833 43.2347 26.0198 44.1525 26.4247C44.7201 26.6753 45.0722 27.3302 45.4877 27.7663C47.3425 26.7887 49.2038 25.8371 51.0384 24.8218C53.621 23.3926 52.9632 23.4142 54.5085 20.7268C56.7383 16.849 63.0264 9.03461 67.7908 10.5691C68.5687 10.8197 69.0737 11.3342 69.651 11.8878C70.0526 10.7502 70.2114 10.3525 70.1008 9.12784C72.0662 12.4831 64.3177 17.2496 62.149 18.7373C57.8142 21.7107 50.6686 26.544 45.5362 27.9484C45.7897 28.4592 46.0422 28.9574 46.3626 29.4299C48.0432 28.3672 50.693 27.4663 52.5463 26.5977C53.7801 26.0194 54.9262 25.227 56.1819 24.7132L56.147 24.7386C53.6104 26.5644 50.7808 28.042 47.9762 29.3957C47.6698 29.5437 46.5894 29.9352 46.5238 30.2579L46.6041 30.2793L46.6261 30.3058C47.7591 30.7603 48.9576 30.9442 50.184 31.4713C49.0369 31.3882 47.866 31.1341 46.7476 30.8729C46.9863 32.3873 47.055 33.8077 46.7825 35.3219L46.8518 35.3548C47.4912 35.6617 48.0985 36.0686 48.709 36.4311C54.5872 39.9229 58.29 41.5986 65.4407 42.0548C70.0249 42.3471 71.8346 42.1219 73.5232 37.5192C72.4881 38.8867 71.3799 39.6798 69.6289 39.5892C69.3765 39.4232 67.7104 39.5939 67.2266 39.496L67.2254 39.4619C67.7494 38.9856 69.4123 39.3041 70.164 38.9825C73.1477 38.1895 73.7523 36.1125 74.2942 33.168C74.4321 32.4183 74.6788 31.6782 74.0486 31.0875C71.7686 28.9496 65.3311 29.1775 62.5285 29.4081C61.6946 29.4766 60.8326 29.6244 60.0007 29.6502L59.9321 29.652C59.9163 29.4826 60.3272 29.3182 59.9775 29.2921L60.1937 29.1842C61.4572 29.0483 62.6976 28.7568 63.9662 28.6347C66.8192 28.3602 74.6677 28.4211 75.136 32.4459C76.7648 28.7681 80.2903 24.8293 78.6626 20.5817C77.854 18.4725 76.2704 16.9069 75.1335 14.9913C73.6153 12.433 72.7882 9.18344 69.8496 7.8891C66.7584 6.52784 63.1265 8.16302 60.3834 9.6964C55.5375 12.4052 51.8923 16.4775 49.1796 21.2769C48.2407 22.938 46.6634 26.1025 44.9183 26.9366ZM9.72237 50.8786C8.62132 45.3523 18.2823 41.3689 22.3235 40.4349C23.568 40.1473 24.8479 40.0165 26.1055 39.802C25.3058 40.1024 24.4533 40.2512 23.6285 40.4683C21.0921 41.1365 18.607 41.9981 16.3429 43.3469C14.9303 44.1887 9.27411 48.0421 10.2258 50.123C10.7936 51.3641 14.2203 54.5673 15.8857 54.3714C19.3456 53.9645 22.6331 50.7885 25.5429 49.4199C23.1513 51.3273 18.2713 55.0117 15.4513 54.9622C14.3983 54.9437 13.9401 54.3441 13.5545 54.3041C17.6382 57.9115 19.3974 56.6966 23.8982 53.7505C30.6006 49.3635 32.1393 45.6626 35.3613 39.0787C34.4765 37.854 33.9858 36.5533 33.6087 35.1008C33.0619 35.8284 31.7204 37.2249 30.9731 37.6951C31.7083 36.6849 32.6827 35.7565 33.5413 34.8481C33.5125 34.6473 33.5001 34.45 33.3992 34.2709C33.2342 34.1583 30.6814 34.5256 30.2972 34.5821C28.0601 34.9111 25.7838 34.9787 23.5343 35.1998L23.5129 35.1723L23.5515 35.1293C23.8875 35.1601 29.2871 34.1396 29.8451 34.036C31.0018 33.8214 32.1611 33.5326 33.3231 33.3644C33.3209 32.9429 33.2836 32.5222 33.2535 32.102C32.3179 32.2363 31.415 32.4567 30.4674 32.5284C24.7544 32.9598 7.06968 32.9424 3.31976 30.8422C2.58813 30.4323 2.24501 29.7315 2.0243 28.9519C2.65736 29.9459 3.27492 30.5563 4.40254 30.9395C4.35419 30.4361 4.32658 29.9999 4.52077 29.5203C4.90715 29.1249 4.42132 29.9593 4.50013 30.1289C4.75709 29.8047 4.92924 29.1804 5.39578 29.1016L5.42496 29.171C7.28373 27.8211 11.1726 27.7839 13.3809 28.5234C13.524 28.3649 13.6074 28.4811 13.4977 28.2257C15.4312 28.6113 17.7674 29.8508 19.4722 30.8331C21.4064 31.9476 20.7514 31.9526 23.088 31.9578C26.5156 31.9658 29.9356 31.8061 33.354 31.5551C31.8859 31.2406 29.4785 29.8177 28.067 29.0787C22.5464 26.1885 16.3837 23.2832 10.0052 23.8274C7.12579 24.0731 4.07168 25.0665 2.1714 27.3561C-0.428317 30.4879 1.29217 33.7919 1.18777 37.1146C1.13625 38.7486 0.546794 40.3102 0.706171 41.9607C1.04537 45.4705 4.19722 47.6394 6.98139 49.2297C7.90474 49.7571 8.90899 50.1773 9.72237 50.8786ZM36.125 39.7895C35.6973 40.2888 35.1783 41.8116 34.8654 42.4867C34.2632 43.7858 33.445 44.9367 32.8789 46.1506C33.1102 47.1967 33.4446 48.2033 33.6329 49.2618C34.1778 52.327 33.9587 56.2157 33.2755 59.1975C33.1563 59.7185 32.8351 61.6302 32.4037 61.8977C33.805 57.9196 33.4364 50.5904 32.3843 46.7139C31.0514 48.9426 28.382 51.5966 26.3859 53.1326C24.8715 54.2978 24.2036 54.0341 23.5594 55.9535C22.9797 57.6808 22.2915 61.2931 22.4147 63.2057C22.4279 65.6823 22.8157 68.1265 23.5018 70.5033C24.0143 68.6493 24.7392 66.2054 26.4447 65.1533C30.1726 69.0984 31.7302 70.4401 36.6204 72.3762C34.8831 69.7221 35.5425 66.411 36.1393 63.4836C36.6884 60.7902 37.2009 58.6891 37.1366 55.8541C37.0264 50.99 34.9513 45.518 36.51 40.7782C36.552 40.6508 36.7888 40.0114 36.7603 39.9455L36.7189 39.9517L36.6761 39.9059C36.4932 39.8636 36.311 39.818 36.125 39.7895ZM46.209 36.1595C45.7595 36.4829 45.2966 36.8091 44.7818 37.0183C47.9133 38.5035 49.6827 41.8953 51.3537 44.7733C53.3838 48.269 55.2792 51.3941 58.1512 54.2532C60.5946 56.6855 64.8112 60.1589 65.5782 63.6414C67.1452 60.8065 68.1712 57.6138 68.6574 54.4091C68.6892 54.2005 68.7744 53.197 68.9724 53.1369C69.992 52.8276 72.8927 54.4178 73.9848 54.8751C73.8421 53.2634 68.8599 47.6842 67.6394 46.5417C66.6921 45.6713 64.0169 43.3769 62.9521 42.876C62.2481 42.5448 60.8152 42.4707 59.9869 42.296C57.2707 41.7226 54.5738 40.6569 52.1023 39.4048C51.2413 38.9688 50.4595 38.4548 49.5568 38.0941C52.4283 41.1623 55.2415 45.2852 57.892 48.6211C59.2024 50.2705 59.7774 51.018 61.4495 52.2377L61.4433 52.2933C59.5527 51.7431 53.8548 44.4124 52.6895 42.8081C51.6506 41.3778 50.2812 39.1842 49.0969 37.9291C48.8066 37.6215 46.5582 36.194 46.209 36.1595ZM43.6358 32.6063C43.5091 32.0061 43.4606 31.0909 43.3949 30.4612C43.1502 29.451 42.7081 28.508 42.2898 27.5614L42.2344 27.591C41.2021 28.1413 39.0773 28.2498 37.8392 28.5096C37.4078 28.6003 34.1917 29.4173 34.0839 29.7736C33.4818 31.7616 34.4299 38.4795 36.6157 39.0103C37.7239 39.2795 40.9281 37.3997 41.9117 36.7374C43.6395 35.5743 43.567 34.4988 43.6358 32.6063ZM64.5252 11.4322C58.9362 13.2646 56.5652 18.5389 53.8342 23.149C54.9038 22.4847 55.9529 21.7791 57.0353 21.1366C60.5748 19.0021 66.0765 15.8729 68.7277 12.9564C68.9668 12.6934 69.5788 12.2244 69.2249 11.8457C68.2728 10.8274 65.746 10.8946 64.5252 11.4322ZM5.42496 29.171C4.88118 29.6557 4.57559 30.2728 4.53154 31.0061C6.58055 31.988 16.6901 32.0735 20.1192 31.9185L20.0679 31.8906C17.735 30.6076 16.3236 28.9352 13.3809 28.5234C11.1726 27.7839 7.28373 27.8211 5.42496 29.171ZM42.4537 27.5173L42.2898 27.5614C42.7081 28.508 43.1502 29.451 43.3949 30.4612C43.4606 31.0909 43.5091 32.0061 43.6358 32.6063L43.687 32.55C43.7918 31.451 43.6764 31.1946 43.8923 32.5189L43.945 32.5231C44.3336 33.9654 44.0619 35.3339 43.3223 36.6044C46.1202 35.8813 46.679 34.4843 46.2725 31.6408C46.0091 29.7975 45.2419 28.0369 43.7407 26.908C43.2259 27.0368 42.8753 27.1932 42.4537 27.5173Z" fill="var(--fill-0, #110C09)"/>
<path fill-rule="evenodd" clip-rule="evenodd" d="M43.3949 30.4612C43.3731 30.2505 43.4197 30.0511 43.4568 29.8447C43.6203 30.4396 44.1117 31.9493 43.945 32.5231L43.8923 32.5189C43.6764 31.1946 43.7918 31.451 43.687 32.55L43.6358 32.6063C43.5091 32.0061 43.4606 31.0909 43.3949 30.4612Z" fill="var(--fill-0, #110C09)"/>
<path fill-rule="evenodd" clip-rule="evenodd" d="M42.2898 27.5614L42.4537 27.5173C42.9618 28.2242 43.2382 29.0099 43.4568 29.8447C43.4197 30.0511 43.3731 30.2505 43.3949 30.4612C43.1502 29.451 42.7081 28.508 42.2898 27.5614Z" fill="var(--fill-0, #110C09)"/>
<path fill-rule="evenodd" clip-rule="evenodd" d="M4.52077 29.5203C5.60464 27.1436 10.0769 27.5392 12.0935 27.887C12.4959 27.9564 13.1569 27.9999 13.4977 28.2257C13.6074 28.4811 13.524 28.3649 13.3809 28.5234C11.1726 27.7839 7.28373 27.8211 5.42496 29.171L5.39578 29.1016C4.92924 29.1804 4.75709 29.8047 4.50013 30.1289C4.42132 29.9593 4.90715 29.1249 4.52077 29.5203Z" fill="var(--fill-0, #110C09)"/>
<path fill-rule="evenodd" clip-rule="evenodd" d="M34.5462 38.6147L34.5624 38.6268C34.5449 39.1767 33.492 40.74 33.1716 41.2717C31.5362 43.9852 28.7543 48.0148 25.7871 49.3542L25.7232 49.2902C25.8209 49.0435 28.5552 46.4722 28.9484 46.0696C31.5942 43.3602 32.5638 41.6607 34.5462 38.6147Z" fill="var(--fill-0, #110C09)"/>
</g>
</g>
</svg>
