<svg width="120" height="120" viewBox="0 0 120 120" fill="none" xmlns="http://www.w3.org/2000/svg">
<path d="M43.1416 100.976C44.2437 103.22 44.6924 104.031 46.9053 105.325V105.522C45.657 106.251 44.3801 106.639 43.7627 108.092C43.5931 108.491 43.4343 109.607 42.7842 109.492C42.1811 109.384 41.9848 107.955 41.7109 107.5C41.0648 106.429 40.0281 106.078 38.9824 105.522V105.127L41.4473 103.536L43.1416 100.976ZM53.1055 92.5101C53.647 92.2484 53.9394 92.8627 54.0674 93.2699C54.5457 94.7909 54.8556 96.2022 56.2236 97.2113C56.7826 97.6235 58.887 98.1294 59.0049 98.8197C59.1115 99.446 58.0033 99.644 57.6025 99.8031C56.2839 100.326 55.2034 101.257 54.6123 102.557C54.3182 103.204 54.2552 104.75 53.5596 105.092C53.1174 105.309 52.7855 104.871 52.6211 104.522C51.9672 103.133 51.8947 101.772 50.6348 100.685C50.0048 100.142 48.0418 99.7518 47.7891 98.9799C47.5864 98.3586 48.7104 98.1485 49.085 97.9916C50.4873 97.4036 51.5746 96.2387 52.1621 94.847C52.4112 94.2563 52.4807 92.8121 53.1055 92.5101ZM37.7939 18.4144C39.816 18.4745 42.7874 21.2859 44.3311 22.4974C44.9551 22.987 45.8501 23.5782 45.8105 24.4711C45.7032 26.8749 43.2442 30.2476 42.1514 32.3793C47.7476 32.1395 52.7748 31.9135 58.1963 33.7631C59.8594 34.3306 61.4453 35.0972 62.9512 35.9984C63.7579 36.4814 64.5806 37.3471 65.5264 37.5209C66.901 37.7729 68.6993 37.1451 70.082 36.9818C72.1451 36.7381 74.5507 36.7629 76.6191 36.9594C87.4251 37.9856 97.2276 42.4946 105.342 49.6342C115.561 58.6261 119.866 75.0835 110.062 85.9515C108.304 87.9005 106.058 89.5714 103.757 90.8324C93.553 96.4248 81.2562 95.6008 70.6758 91.5238C67.9868 90.4876 65.4247 89.2479 62.9512 87.7699C61.9922 87.1968 60.5166 85.789 59.3848 85.7396C57.6694 85.6651 56.1049 87.808 54.2354 87.9281C55.0407 86.8109 56.2359 86.2516 57.1826 85.2943C57.535 84.9379 57.8529 84.2565 57.1826 84.0072C56.6267 83.8012 56.0312 84.3923 55.6211 84.681C54.349 85.5769 53.0201 86.4072 51.6602 87.1644C47.3218 89.5798 42.3253 90.9856 37.3975 91.4535C25.3982 92.5931 12.4405 85.2683 12.4404 72.1136C12.4404 65.5726 15.7218 59.2187 19.8545 54.3217C26.6481 46.2717 37.9361 39.891 48.6885 39.891C52.5452 39.891 56.2835 40.1733 59.583 42.4105C65.5929 46.4857 66.3732 54.4646 64.0527 60.8451C63.4601 62.4748 62.7352 64.0706 61.8984 65.5902C61.5652 66.1955 60.7676 66.9809 60.707 67.681C60.608 68.8389 64.4339 72.6553 65.4609 71.8412C67.0563 70.5756 67.9244 67.6269 68.6113 65.7875C71.7555 57.3678 69.9297 48.1497 62.5547 42.6381C60.4629 41.0748 58.1386 39.8485 55.6211 39.1283C54.5537 38.823 52.4738 38.8615 51.8584 37.9144C63.5732 37.9147 72.9833 48.1369 71.3848 59.8568C70.8567 63.7281 69.7363 67.3313 67.7881 70.7299C67.4325 71.3502 65.7402 73.3707 66.873 73.8881C67.8251 74.3222 69.0196 71.3563 69.374 70.7299C71.4171 67.1188 72.9484 62.6481 73.0508 58.473C73.3314 47.039 65.6774 37.0564 54.4326 34.4847C52.0208 33.9332 48.7607 33.2322 46.3115 33.8724C43.9084 34.5007 40.8718 37.493 38.9824 39.1L46.5098 38.1117V38.309L32.8418 42.7074L26.7012 46.2552L22.7393 48.7865C23.3424 47.4962 24.5976 46.6448 25.71 45.7982C28.3626 43.7793 31.4809 41.8391 34.624 40.682V40.4838C31.6717 40.4837 28.3204 39.5072 25.5127 40.7504C22.9762 41.8736 20.844 43.9492 18.7773 45.7377C10.1116 53.2364 3.92245 66.1933 8.39746 77.4506C9.38592 79.9369 10.7065 82.6564 12.835 84.3705C6.46685 76.0355 9.4284 63.9154 15.0137 56.101C16.6414 53.8236 19.0533 50.4215 21.749 49.3793C21.2265 51.5727 18.5215 53.5144 17.1719 55.3099C14.53 58.8252 12.3024 62.8509 11.334 67.1713C8.03902 81.8705 20.3183 93.4146 34.624 93.0648C38.4339 92.9717 42.2656 92.2323 45.915 91.1469C47.8143 90.5821 49.6731 89.4851 51.6602 89.3119C49.6159 92.0595 44.3769 93.292 41.1611 93.9379C30.276 96.1235 18.2357 93.3936 10.7129 84.765C0.43337 72.9737 5.87876 56.3785 15.6152 46.2172C19.0398 42.6434 24.3147 37.915 29.2764 36.7279V36.3324C27.2908 35.5824 25.3574 34.2179 23.5312 33.1302C22.852 32.7258 21.7902 32.3049 21.4336 31.5511C20.8373 30.2905 22.2583 28.0017 22.7373 26.8431C23.2916 25.5022 23.7456 23.596 24.7744 22.5394C25.5541 21.7384 26.8748 21.529 27.8896 21.1488C30.6837 20.1018 34.7825 18.3251 37.7939 18.4144ZM62.1582 93.8588L61.5645 94.2543L61.7627 93.6615L62.1582 93.8588ZM75.0342 38.5248C72.4172 38.3461 69.9 38.9889 67.3086 39.1C67.6857 39.9072 68.394 40.8589 69.2891 41.1478C70.2555 41.4598 71.848 40.8569 72.8555 40.7377C74.6282 40.5284 76.6203 40.5778 78.4014 40.6996C85.5046 41.1849 94.9624 44.0651 99.7949 49.5775C97.2459 48.6134 94.9924 46.7106 92.4658 45.5961C85.8949 42.6972 78.5095 42.0761 71.8643 44.8334C72.2867 46.3953 74.0628 46.0746 75.4307 46.2015C78.8894 46.5226 82.3227 47.4391 85.5322 48.7592C95.4536 52.8393 107.122 61.9237 107.124 73.6947H107.322C109.88 68.8507 108.934 62.5623 106.467 57.8802C105.478 56.0034 103.491 54.1686 102.964 52.1469C105.887 54.9617 108.327 58.0619 109.896 61.8344C110.843 64.1142 111.528 66.6605 111.479 69.1478C111.312 77.6607 103.312 82.7356 95.6348 83.8031C82.4229 85.6402 68.0682 79.2436 59.4424 69.3461C53.0153 61.9711 51.3942 51.4887 59.583 44.8334V44.6351C57.3035 42.6763 55.6086 45.0053 54.2402 47.0072C51.2148 51.4332 51.8405 55.659 52.0557 60.6478C51.1702 59.7631 51.0488 58.4792 50.8516 57.2875C50.1985 53.3437 51.6418 49.8261 53.4424 46.4144C44.7759 52.5237 46.1741 65.577 50.8398 73.4974C59.0647 87.4591 79.5577 95.6757 95.2393 91.8558C100.895 90.4781 109.276 86.7502 111.086 80.6136C108.223 82.6264 105.967 84.7999 102.568 86.0111C91.3271 90.0166 78.1942 86.0996 68.4971 80.0306C64.1901 77.3352 58.9371 73.6091 56.6123 68.9506C58.0935 70.1426 59.1616 71.792 60.5732 73.0687C65.0656 77.1319 69.9261 80.698 75.6279 82.851C83.7604 85.9216 92.6718 87.5102 101.182 85.0765C108.058 83.1098 113.637 77.5394 113.661 70.1371C113.668 67.8889 113.181 65.5177 112.389 63.4154C111.332 60.6107 109.951 57.9231 108.162 55.5082C100.501 45.1677 87.6662 39.3881 75.0342 38.5248ZM51.0654 77.6488C42.7119 84.0567 31.1803 87.4348 20.9561 84.1722C22.4467 86.2402 25.1635 87.4004 27.4932 88.2601C34.0914 90.6946 41.6483 90.0107 48.0938 87.4135C50.1303 86.5927 51.9606 85.5738 53.8389 84.4486C54.4063 84.1086 55.5529 83.6666 55.751 82.9681C55.9384 82.3058 55.0306 81.7648 54.6318 81.3871C53.3869 80.2069 52.4302 78.6904 51.0654 77.6488ZM55.0273 42.2631C51.6423 41.996 48.5271 41.64 45.123 42.1215C34.2554 43.6593 23.9967 50.8696 18.2666 60.0551C15.2702 64.8585 12.3127 73.8305 16.1025 79.0326C17.862 81.4475 21.083 82.805 23.9277 83.3812C30.2425 84.6605 36.9551 83.2794 42.7461 80.6742C44.6049 79.8379 46.3809 78.8889 48.0938 77.7787C48.6182 77.4385 49.5824 77.0362 49.8291 76.4213C50.2463 75.3811 48.0045 72.7092 47.5215 71.7181C45.7666 68.1173 44.878 64.256 44.9258 60.2523C44.9817 55.5644 47.0143 50.5119 50.1084 47.0072C51.5311 45.3955 53.9454 44.0487 55.0273 42.2631ZM73.0527 47.7982C74.4987 54.0363 75.4153 59.062 73.5049 65.392C72.7569 67.8694 71.5819 70.2805 70.2773 72.5092C69.8997 73.1542 68.7449 74.4435 68.9814 75.2347C69.1777 75.8901 70.3267 76.3724 70.874 76.6859C72.6661 77.7127 74.5189 78.5683 76.4209 79.3715C82.8542 82.0882 90.7563 83.4251 97.6162 81.6752C99.7263 81.1369 102.288 80.4769 103.909 78.9301C104.766 78.1132 105.021 76.5947 105.22 75.474C105.897 71.6522 104.59 67.6641 102.646 64.4037C96.8435 54.6691 84.4025 47.7982 73.0527 47.7982ZM62.7529 49.5775C60.0721 50.6169 57.0834 52.4715 56.0439 55.3099C54.8091 58.6828 57.1904 63.5701 59.1865 66.183H59.3848C62.5688 62.3189 65.1565 54.3572 62.7529 49.5775ZM115.792 42.4447C116.458 42.5586 116.64 44.3189 116.937 44.8324C117.603 45.9867 118.75 46.5136 120 46.8099C119.674 47.816 118.597 47.8529 117.824 48.4691C116.777 49.3043 116.331 50.4897 116.038 51.7523C114.479 51.4984 114.561 49.4396 113.442 48.4965C112.686 47.859 111.609 47.8119 111.284 46.8099C112.656 46.4128 113.868 45.7744 114.541 44.4379C114.785 43.9537 114.991 42.3085 115.792 42.4447ZM62.1582 47.9955C60.2572 43.9383 57.6694 48.4415 56.8096 50.9613L62.1582 47.9955ZM113.859 46.8099L115.443 49.182H115.84L117.425 47.4027L115.84 45.2279L113.859 46.8099ZM6.15332 31.6224C6.67898 31.3641 6.97396 31.99 7.10254 32.3822C7.68192 34.1488 8.01892 35.5846 9.46777 36.9047C10.1106 37.4904 12.4508 38.0085 12.6855 38.7435C12.9049 39.4309 11.6688 39.6847 11.25 39.8656C9.77346 40.5027 8.45204 41.5829 7.74902 43.0541C7.39478 43.796 7.28323 45.6086 6.44922 45.9681C5.92416 46.1942 5.62992 45.6178 5.49121 45.2201C4.92056 43.5808 4.61113 42.2207 3.26953 40.972C2.70263 40.4444 0.00021117 39.6438 0 38.9047C0 38.2389 1.47616 37.9853 1.93945 37.7543C3.37238 37.0387 4.4805 35.8384 5.09082 34.3558C5.36854 33.6811 5.44575 31.9704 6.15332 31.6224ZM3.56543 38.8929L6.09961 42.2631H6.49609L9.22754 38.9027L6.29785 35.3441L3.56543 38.8929ZM104.999 28.8373C105.399 28.5991 105.717 28.8762 105.857 29.2455C106.484 30.889 106.536 32.2449 107.92 33.5463C108.438 34.0326 110.798 34.7958 110.903 35.3822C111.016 36.0184 109.906 36.2504 109.501 36.4242C108.09 37.0285 107.025 38.095 106.401 39.4955C106.13 40.1054 106.047 41.5529 105.308 41.7992C104.599 42.0352 103.331 38.3189 102.748 37.7347C102.072 37.0577 99.7465 36.4943 99.4678 35.6957C99.2363 35.0322 100.386 34.8236 100.785 34.6576C102.252 34.0479 103.456 32.8616 104.059 31.39C104.336 30.7119 104.326 29.2389 104.999 28.8373ZM102.37 35.3441V35.7396L104.945 38.5072H105.342L107.917 35.7396L105.144 32.3783L102.37 35.3441ZM47.5 38.1117C48.469 37.451 50.6911 37.451 51.6602 38.1117H47.5ZM23.9277 31.1927L27.4932 33.6049L34.624 37.7162L30.1445 31.7855L28.0791 29.89L23.9277 31.1927ZM29.8701 29.0179C31.0438 31.646 34.2655 35.6409 36.6055 37.3207L37.7939 26.6459L29.8701 29.0179ZM43.7363 25.2621C42.6655 25.3087 40.2943 25.515 39.5479 26.3617C38.9908 26.9937 39.0527 28.4154 38.9824 29.2162C38.7849 31.4657 38.4733 33.6961 38.1895 35.9369H38.3877L43.7363 25.2621ZM87.3154 34.5531L86.9189 34.1576H87.3154V34.5531ZM79.1953 25.8549L81.9668 27.8324V28.2269L79.1934 30.2074L78.0059 32.0551L76.9092 30.2074L74.2422 28.2269V27.8324L77.0342 25.6566L78.0391 23.9467L79.1953 25.8549ZM68.2988 31.9838H67.5068V31.7855L68.2988 31.9838ZM78.0049 26.2504C76.8083 27.7232 76.5501 28.5462 78.2031 29.809L79.5898 27.8324L78.0049 26.2504ZM26.1064 23.681L26.7002 25.0648L25.71 24.0756L23.333 29.6107L27.6914 28.2269L26.7002 25.4594L28.0869 27.0414H28.2852L30.0684 22.2972L26.1064 23.681ZM14.4824 26.9906C15.277 26.585 17.1146 26.7313 17.9814 26.8724C18.4427 26.9477 19.0948 27.39 18.5049 27.8285C17.7514 28.3883 15.5195 28.422 14.6465 28.1644C14.0726 27.9949 13.8979 27.2895 14.4824 26.9906ZM29.6719 27.4369L37.001 25.2621C35.8158 23.8309 33.5563 22.4381 31.8506 21.7035L29.6719 27.4369ZM67.2197 11.4408C67.8769 11.0208 68.2175 11.9562 68.3369 12.4135C68.8523 14.3852 69.64 16.158 71.4688 17.2601C72.1019 17.6414 74.921 18.075 75.0498 18.7719C75.1888 19.5278 73.5 19.6029 73.0537 19.7357C71.3074 20.256 69.7753 21.4525 68.9482 23.0873C68.5822 23.8108 68.4622 25.6239 67.6582 25.972C66.9639 26.2725 66.7216 25.3317 66.5908 24.8656C65.9965 22.7471 64.8648 20.9047 62.7529 20.016C62.2593 19.8084 60.7002 19.6267 60.7002 18.9125C60.7004 18.1272 62.2179 17.975 62.7529 17.7416C64.2861 17.0726 65.5724 15.7119 66.249 14.1918C66.5594 13.4945 66.5488 11.87 67.2197 11.4408ZM37.3975 20.2084C36.3116 20.14 35.09 20.6952 34.0303 20.9135C34.7236 22.1966 36.543 23.1671 37.7939 23.8783L37.9912 20.9135H38.1895L38.9824 24.6693L42.9434 23.681C41.8468 22.3368 39.2052 20.3221 37.3975 20.2084ZM16.6289 20.3461C17.9518 20.0857 20.8529 21.9893 20.9561 23.2855C20.2285 23.2685 19.6392 23.1497 18.9756 22.8383C18.5087 22.619 18.0496 22.3797 17.5889 22.1478C17.2052 21.9546 15.1504 20.6376 16.6289 20.3461ZM67.3086 15.1801C66.6417 16.6936 65.4487 17.7696 64.1396 18.7386V18.9359L67.3086 22.2972H67.7051C68.5262 20.8796 69.7843 19.6416 71.2705 18.9359V18.7386C69.7288 18.0066 68.4386 16.7186 67.7051 15.1801H67.3086ZM49.873 17.4808C50.6511 17.3852 51.0034 18.0094 50.4072 18.5599C49.694 19.2185 47.8921 20.1492 46.915 20.2133C46.1138 20.2658 46.0409 19.551 46.5479 19.0922C47.3007 18.4106 48.8573 17.6059 49.873 17.4808ZM25.5723 13.8314C26.6895 13.662 28.5171 17.7561 27.4531 17.9135C26.3484 18.0762 24.5185 13.9913 25.5723 13.8314ZM44.9209 13.0228C45.6996 12.6856 45.9153 13.4005 45.6309 13.9955C45.1663 14.9665 43.8668 16.945 42.7578 17.2064C41.8729 17.4149 42.1328 16.4071 42.3721 15.9711C42.91 14.9919 43.8591 13.483 44.9209 13.0228ZM33.6416 10.5267C34.1865 10.3588 34.3595 11.0407 34.4043 11.4271C34.4917 12.1801 34.8278 15.6151 33.7881 15.7885C32.7349 15.9633 32.5833 10.8533 33.6416 10.5267Z" fill="white"/>
</svg>
